<svg xmlns="http://www.w3.org/2000/svg" viewBox="0 0 1155 527" preserveAspectRatio="xMidYMid" width="1155" height="527" xmlns:xlink="http://www.w3.org/1999/xlink" style="shape-rendering:auto;display:block;background-position-x:0%;background-position-y:0%;background-size:auto;background-origin:padding-box;background-clip:border-box;background:scroll rgb(255, 255, 255) none  repeat;width:1155px;height:527px;;animation:none"><g><linearGradient y2="0" y1="0" x2="1" x1="0" id="lg-6txvib78hzj"><stop offset="0" stop-color="#ff00ff"></stop>

  
<stop offset="1" stop-color="#00ffff"></stop></linearGradient>
<path opacity="0.4" fill="url(#lg-6txvib78hzj)" d="M 0 0 L 0 319.58 Q 115.5 324.78 231 291.6 T 462 321.23 T 693 264.03 T 924 242.57 T 1155 162 L 1155 0 Z" style="fill:url('#lg-6txvib78hzj');opacity:0.4;;animation:none"></path>
<path opacity="0.4" fill="url(#lg-6txvib78hzj)" d="M 0 0 L 0 331.388 Q 115.5 308.971 231 284.824 T 462 241.919 T 693 242.768 T 924 190.78 T 1155 167.469 L 1155 0 Z" style="fill:url('#lg-6txvib78hzj');opacity:0.4;;animation:none"></path>
<path opacity="0.4" fill="url(#lg-6txvib78hzj)" d="M 0 0 L 0 315.947 Q 115.5 356.454 231 332.435 T 462 274.563 T 693 236.617 T 924 231.559 T 1155 127.718 L 1155 0 Z" style="fill:url('#lg-6txvib78hzj');opacity:0.4;;animation:none"></path>
<path opacity="0.4" fill="url(#lg-6txvib78hzj)" d="M 0 0 L 0 374.258 Q 115.5 333.214 231 306.958 T 462 325.576 T 693 270.205 T 924 205.098 T 1155 158.24 L 1155 0 Z" style="fill:url('#lg-6txvib78hzj');opacity:0.4;;animation:none"></path>
<path opacity="0.4" fill="url(#lg-6txvib78hzj)" d="M 0 0 L 0 321.154 Q 115.5 368.015 231 335.181 T 462 232.881 T 693 198.657 T 924 239.19 T 1155 155.154 L 1155 0 Z" style="fill:url('#lg-6txvib78hzj');opacity:0.4;;animation:none"></path>
<g></g></g><!-- [ldio] generated by https://loading.io --></svg>